<svg xmlns="http://www.w3.org/2000/svg" width="64" height="48" viewBox="0 0 64 48"><defs><style>.cls-1{fill:#8dc63f;}</style></defs><g id="Layer_2" data-name="Layer 2"><g id="Layer_1-2" data-name="Layer 1"><g id="about"><path class="cls-1" d="M0,5.62l.28-.93A6.68,6.68,0,0,1,6.61,0h50.8A6.62,6.62,0,0,1,64,6.56V41.44A6.62,6.62,0,0,1,57.41,48H6.61A6.64,6.64,0,0,1,.13,42.73,2.09,2.09,0,0,0,0,42.38ZM32.05,2.68h-25a4,4,0,0,0-4.37,3.6,4.33,4.33,0,0,0,0,.72V41a4,4,0,0,0,3.66,4.31,3.64,3.64,0,0,0,.66,0H57.07A3.94,3.94,0,0,0,61.3,41.7a2.91,2.91,0,0,0,0-.59V6.86a4.15,4.15,0,0,0-.75-2.48,4.18,4.18,0,0,0-3.69-1.71Q44.49,2.7,32.05,2.68Z"/><path class="cls-1" d="M20,26.64h5.12A6.68,6.68,0,0,1,32,33.11v0a2.94,2.94,0,0,1,0,.42v2.37a1.34,1.34,0,1,1-2.66.32.61.61,0,0,1,0-.14h0V33.68a4.11,4.11,0,0,0-3.84-4.36,4,4,0,0,0-.49,0c-3.37.1-6.76,0-10.12,0A4,4,0,0,0,10.69,33v3.11a1.23,1.23,0,0,1-1.06,1.15,1.27,1.27,0,0,1-1.32-.53A1,1,0,0,1,8,36.2a26.27,26.27,0,0,1,.19-4.52,6.55,6.55,0,0,1,6.41-5.12H20Z"/><path class="cls-1" d="M13.32,17.29a6.68,6.68,0,0,1,13.35-.35v.44a6.68,6.68,0,0,1-13.35-.09ZM20,13.35a4,4,0,1,0,4,4v-.06A4,4,0,0,0,20,13.35Z"/><path class="cls-1" d="M46.62,37.37H39.1a5.42,5.42,0,0,1-.57,0,1.35,1.35,0,0,1,0-2.7h0a1,1,0,0,1,.25,0h15.7a1.36,1.36,0,0,1,.32,2.7H46.62Z"/><path class="cls-1" d="M46.66,26.69H39.23a3.22,3.22,0,0,1-.76,0A1.35,1.35,0,0,1,38.62,24H54.56A1.34,1.34,0,0,1,56,25.08a1.32,1.32,0,0,1-.75,1.5,2.6,2.6,0,0,1-1,.13Z"/><path class="cls-1" d="M46.68,16H38.94a1.42,1.42,0,0,1-1.6-1.2v-.14c0-.83.59-1.35,1.59-1.35H54.54A1.35,1.35,0,1,1,54.78,16a.66.66,0,0,1-.28,0Z"/></g></g></g></svg>