<svg xmlns="http://www.w3.org/2000/svg" width="64" height="48.01" viewBox="0 0 64 48.01"><defs><style>.cls-1{fill:#8dc63f;}</style></defs><g id="Layer_2" data-name="Layer 2"><g id="Layer_1-2" data-name="Layer 1"><g id="Layer_2-2" data-name="Layer 2"><g id="Layer_1-2-2" data-name="Layer 1-2"><g id="contacts"><path class="cls-1" d="M0,8.75c.12-.48.23-1,.36-1.43A10,10,0,0,1,10,0H54A10,10,0,0,1,64,9.94V38a10,10,0,0,1-9.93,10H10A10,10,0,0,1,.11,39.54,1,1,0,0,0,0,39.26ZM31.94,44H53.56a7.65,7.65,0,0,0,1.85-.19A6,6,0,0,0,60,37.76V10.32A6,6,0,0,0,54.29,4a4.56,4.56,0,0,0-.64,0H10.35A6,6,0,0,0,4,9.68c0,.23,0,.47,0,.7V37.69a6.76,6.76,0,0,0,.2,1.73A6,6,0,0,0,10.25,44Z"/><path class="cls-1" d="M42.72,24.06a8.16,8.16,0,0,1,.66.5L55.22,36.4a2.07,2.07,0,0,1,.67,2.31,2,2,0,0,1-2.54,1.22,1.92,1.92,0,0,1-.64-.36,5.55,5.55,0,0,1-.49-.48L40.55,27.39c-.17-.18-.33-.37-.49-.57l-.54.51-5.83,5.83c-1.18,1.18-2.21,1.17-3.39,0l-6.24-6.3-.5.47q-6,5.94-11.88,11.89A2.23,2.23,0,0,1,10,40a1.9,1.9,0,0,1-1.75-1.12,1.87,1.87,0,0,1,.14-2,3.78,3.78,0,0,1,.51-.55L20.64,24.52l.49-.51-.48-.52L8.72,11.56a2,2,0,1,1,2.78-2.9L14.81,12,31.47,28.63a6,6,0,0,1,.44.59l.64-.6L52.34,8.81A2.26,2.26,0,0,1,54,8a1.92,1.92,0,0,1,1.79,1.14,1.9,1.9,0,0,1-.16,2.06,4.57,4.57,0,0,1-.56.6L43.39,23.46C43.22,23.63,43,23.76,42.72,24.06Z"/></g></g></g></g></g></svg>