<svg xmlns="http://www.w3.org/2000/svg" width="582.49" height="583.33" viewBox="0 0 582.49 583.33"><defs><style>.cls-1{fill:#fff;}</style></defs><g id="Layer_2" data-name="Layer 2"><g id="Layer_1-2" data-name="Layer 1"><g id="download"><path class="cls-1" d="M499.08,583.33H84.41A88,88,0,0,1,.08,491.67v-100a25,25,0,1,1,50,0v100a38.67,38.67,0,0,0,33.33,41.66H499.08a38.65,38.65,0,0,0,33.33-41.66v-100a25,25,0,1,1,50,0v100a88,88,0,0,1-83.33,91.66Z"/><path class="cls-1" d="M291.75,416.67a24.68,24.68,0,0,1-17.67-7.34L140.75,276a25,25,0,0,1,35.33-35.33L291.75,356.33,407.41,240.67A25,25,0,0,1,442.75,276L309.41,409.33a24.68,24.68,0,0,1-17.66,7.34Z"/><path class="cls-1" d="M291.75,416.67a25.32,25.32,0,0,1-25-25V25a25,25,0,0,1,50,0V391.67a25.34,25.34,0,0,1-25,25Z"/></g></g></g></svg>