<svg xmlns="http://www.w3.org/2000/svg" viewBox="0 0 579.64 239.89"><defs><style>.cls-1,.cls-2{fill:#58cc02;}.cls-2{font-size:211.59px;font-family:AgencyFB-Reg, Agency FB;}</style></defs><g id="Layer_2" data-name="Layer 2"><g id="Layer_1-2" data-name="Layer 1"><g id="Life4five"><path class="cls-1" d="M237.23,152.39v-9.8l50.12-64.12h15.12l-49.7,64.12-7.14-2.24h78.26v12Zm54.46,24.08V152.39l.42-12V119.07h13.16v57.4Z"/><text class="cls-2" transform="translate(315.46 186.62) scale(1.47 1)">∫</text><path class="cls-1" d="M398.2,87a9,9,0,0,1-6.51-2.52,8.25,8.25,0,0,1-2.59-6.16,8.42,8.42,0,0,1,2.59-6.3,9,9,0,0,1,6.51-2.52,9.12,9.12,0,0,1,6.51,2.45A8,8,0,0,1,407.3,78a8.74,8.74,0,0,1-9.1,9Zm-6.72,88.48v-74.2h13.44v74.2Z"/><path class="cls-1" d="M450,175.47l-32.48-74.2h14l28.84,67.2h-6.72l29.4-67.2H496.2l-32.48,74.2Z"/><path class="cls-1" d="M539.74,176.31a43.17,43.17,0,0,1-20.93-4.9,35.33,35.33,0,0,1-14-13.44,38.28,38.28,0,0,1-5-19.6,39.12,39.12,0,0,1,4.83-19.6A34.87,34.87,0,0,1,518,105.4a37.9,37.9,0,0,1,19.11-4.83,37.48,37.48,0,0,1,19,4.76,33.67,33.67,0,0,1,13,13.37,41.32,41.32,0,0,1,4.69,20.09c0,.56,0,1.21-.07,2s-.12,1.45-.21,2.1H510.34v-9.66h56.14L561,136.55a25,25,0,0,0-2.94-12.74,22.49,22.49,0,0,0-8.47-8.75,26.36,26.36,0,0,0-25,0,22.17,22.17,0,0,0-8.54,8.82,26.74,26.74,0,0,0-3.08,13v2.24a25.48,25.48,0,0,0,3.43,13.23,23.6,23.6,0,0,0,9.59,9,30,30,0,0,0,14.14,3.22,30.94,30.94,0,0,0,12-2.24,26.19,26.19,0,0,0,9.45-6.72l7.42,8.68a32.49,32.49,0,0,1-12.53,9A43.66,43.66,0,0,1,539.74,176.31Z"/><rect class="cls-1" x="319.24" y="114.98" width="61" height="20" rx="4.85"/><path class="cls-1" d="M14.7,175.77v-98h14v85.82H81.76v12.18Z"/><path class="cls-1" d="M102.62,87.29a8.94,8.94,0,0,1-6.51-2.52,8.26,8.26,0,0,1-2.59-6.16,8.42,8.42,0,0,1,2.59-6.3,8.94,8.94,0,0,1,6.51-2.52,9.08,9.08,0,0,1,6.51,2.45,8.06,8.06,0,0,1,2.59,6.09,8.74,8.74,0,0,1-9.1,9ZM95.9,175.77v-74.2h13.44v74.2Z"/><path class="cls-1" d="M124.32,112.63V101.57h47.32v11.06Zm12.6,63.14V95q0-10.92,6.37-17.43t18.13-6.51a32.62,32.62,0,0,1,8.33,1,18,18,0,0,1,6.79,3.29l-4.06,10.22A15.57,15.57,0,0,0,167.72,83a17.12,17.12,0,0,0-5.6-.91q-5.88,0-9,3.29t-3.08,9.73v9.94l.28,6.16v64.54Z"/><path class="cls-1" d="M230.44,171.15c-5.18,3.5-15.26,6.16-24.78,6.16-13.58,0-28.56-5.32-28.56-20.58,0-8.4,6.86-15.4,16.8-16.94v-.7c-9-2-13.44-7.56-13.44-14.28,0-9,9-18.34,27-18.34,8.82,0,15.68,1.82,20.58,5.18l-2.66,8.12c-2.8-1.82-10.08-4.2-16.94-4.2-9.38,0-15.68,3.92-15.68,10.08,0,6.72,8.26,9.66,18.9,9.66h8.12v8.82h-8.54c-12.18,0-21.28,3.36-21.28,11.48s8.4,12.32,18.34,12.32a44.84,44.84,0,0,0,19.88-5.18Z"/></g></g></g></svg>