<svg xmlns="http://www.w3.org/2000/svg" width="22.58mm" height="22.58mm" viewBox="0 0 64 64"><defs><style>.cls-1{fill:#8ec044;}</style></defs><g id="Layer_2" data-name="Layer 2"><g id="Layer_1-2" data-name="Layer 1"><path class="cls-1" d="M64,16.38v1.5a3.71,3.71,0,0,1-1.89,1.75c-3,1.46-5.93,2.95-8.9,4.44-.22.12-.43.27-.74.47.34.2.56.35.8.47,2.95,1.47,5.89,3,8.84,4.41A3.71,3.71,0,0,1,64,31.17v1.5a3.69,3.69,0,0,1-1.89,1.74q-4.45,2.21-8.9,4.45c-.22.11-.43.27-.74.47.34.2.56.35.8.47,2.95,1.47,5.89,3,8.84,4.41A3.69,3.69,0,0,1,64,46v1.51a3.73,3.73,0,0,1-1.89,1.74c-6.24,3.11-12.46,6.24-18.7,9.34C39.71,60.38,36,62.18,32.29,64h-.5c-.73-.33-1.46-.63-2.17-1L7.77,52.09,1.6,49A2.59,2.59,0,0,1,.22,47.63a2.44,2.44,0,0,1,1.36-3.22l9.24-4.62c.24-.13.46-.29.79-.5-.36-.21-.58-.35-.82-.47-3-1.52-6.1-3-9.12-4.59a3.42,3.42,0,0,1-1.4-1.34,2.35,2.35,0,0,1,1.31-3.26L10.82,25a8.69,8.69,0,0,0,.79-.5c-.32-.19-.51-.31-.71-.41L8.66,23C6.29,21.78,3.91,20.6,1.54,19.4A2.35,2.35,0,0,1,.31,16.07a3.68,3.68,0,0,1,1.51-1.33C11.31,10,20.83,5.23,30.32.45a3.51,3.51,0,0,1,3.44,0Q47.92,7.58,62.11,14.64A3.73,3.73,0,0,1,64,16.38Zm-55.93.74c.32.2.5.33.7.43Q20,23.19,31.34,28.85a1.42,1.42,0,0,0,1.41,0Q44,23.19,55.27,17.57c.21-.11.4-.25.71-.44a8,8,0,0,0-.79-.47Q44,11.05,32.79,5.44a1.55,1.55,0,0,0-1.53,0Q20.07,11.08,8.86,16.67C8.64,16.78,8.43,16.91,8.07,17.12ZM56,31.91c-.39-.22-.61-.37-.85-.48-2.48-1.25-5-2.47-7.45-3.74a1.71,1.71,0,0,0-1.75,0c-4.05,2.06-8.14,4.06-12.2,6.13a3.46,3.46,0,0,1-3.44,0c-4.1-2.11-8.25-4.14-12.37-6.22a1.42,1.42,0,0,0-1.41,0c-2.56,1.31-5.15,2.58-7.72,3.88a7,7,0,0,0-.73.44c.31.19.5.33.72.44L31.32,43.62a1.4,1.4,0,0,0,1.41,0L55.25,32.36C55.47,32.26,55.66,32.12,56,31.91ZM8.07,46.7a6.68,6.68,0,0,0,.7.42l22.57,11.3a1.42,1.42,0,0,0,1.41,0L55.27,47.14c.21-.1.4-.25.71-.44-.32-.19-.51-.33-.73-.44-2.55-1.28-5.12-2.55-7.67-3.85a1.5,1.5,0,0,0-1.52,0c-4.1,2.07-8.22,4.09-12.31,6.18a3.46,3.46,0,0,1-3.44,0C26.22,46.5,22.09,44.48,18,42.41a1.44,1.44,0,0,0-1.46,0C14,43.71,11.38,45,8.8,46.27,8.6,46.37,8.41,46.5,8.07,46.7Z"/></g></g></svg>