<svg xmlns="http://www.w3.org/2000/svg" width="64" height="64.02" viewBox="0 0 64 64.02"><defs><style>.cls-1{fill:#8dc63f;}</style></defs><g id="Layer_2" data-name="Layer 2"><g id="Layer_1-2" data-name="Layer 1"><g id="Layer_2-2" data-name="Layer 2"><g id="Layer_1-2-2" data-name="Layer 1-2"><g id="projects"><path class="cls-1" d="M0,51.37c.15-.58.27-1.21.44-1.8a11.57,11.57,0,0,1,3.05-5l25-25,4.07-4.08c-.15-.17-.28-.32-.42-.46a4,4,0,0,1,0-5.62l0,0a3.93,3.93,0,0,1,5.56,0l.09.1L54.49,26.2A4,4,0,0,1,49,31.89l-.46-.45L48,31.9Q33.71,46.21,19.4,60.55A11.27,11.27,0,0,1,.26,55.19c-.08-.35-.17-.71-.26-1ZM17.72,37.94,15.6,35.77l-3.45,3.45h25.1a1.46,1.46,0,0,0,.9-.42q4.93-4.92,9.86-9.87a2.93,2.93,0,0,0,.39-.69c.5.54.78.87,1.09,1.17l1,1a1.88,1.88,0,0,0,2.19.33,1.75,1.75,0,0,0,1-1.93,3.3,3.3,0,0,0-.82-1.35Q46,20.58,39.09,13.75c-1-1-1.9-1.93-2.87-2.87A1.83,1.83,0,0,0,34,10.61a1.74,1.74,0,0,0-.83,2.09,3.11,3.11,0,0,0,.75,1.12q5.88,5.91,11.79,11.8c.16.15.3.32.37.39l-1.37,1.55L34.2,17.08l-1.75,1.64L36.75,23,35.3,24.45l-4.23-4.27-1.75,1.61,2.29,2.27-1.48,1.51L27.9,23.29l-1.7,1.64,4.35,4.26-1.43,1.5-4.35-4.35L23.12,28l2.3,2.15L24,31.73,21.83,29.4l-1.78,1.66,4.31,4.28-1.44,1.49-4.24-4.28-1.74,1.63,2.27,2.26Zm17.87,3.45a1.38,1.38,0,0,0-.29-.08H10.07a1,1,0,0,0-.59.26c-1.68,1.66-3.41,3.3-5,5a8.6,8.6,0,0,0-2.14,8.16,8.68,8.68,0,0,0,6.4,6.76,8.77,8.77,0,0,0,9-2.33c4.11-4.08,8.19-8.15,12.28-12.27Z"/><path class="cls-1" d="M57.5,0a3.59,3.59,0,0,1,2.17,2,3.1,3.1,0,1,1-4.4-1.6c.28-.15.59-.25.85-.38Zm-.74,2.11a1,1,0,0,0-1,1,1.09,1.09,0,0,0,1,1,1,1,0,0,0,1-1v0a.94.94,0,0,0-.95-1Z"/><path class="cls-1" d="M55.74,15.43A4.13,4.13,0,0,1,64,15.28a2.62,2.62,0,0,1,0,.28,4.13,4.13,0,0,1-8.25-.13Zm6.15.07a2,2,0,1,0-2.08,2,2,2,0,0,0,2.08-1.89Z"/><path class="cls-1" d="M44.38,3.1a3.1,3.1,0,0,1,.27,6.2h-.27a3.1,3.1,0,0,1-.27-6.2A1.22,1.22,0,0,1,44.38,3.1Zm1,3.08a1,1,0,0,0-1-1h0a1,1,0,0,0-1,1v0a1,1,0,0,0,1,1,1,1,0,0,0,1-1Z"/><path class="cls-1" d="M12.42,59.87a3.13,3.13,0,0,1-3.16-3.09h0a3.12,3.12,0,1,1,6.23,0h0A3.09,3.09,0,0,1,12.42,59.87Zm1-3.07a1,1,0,0,0-1-1h0a1.05,1.05,0,0,0-1,1,1,1,0,0,0,1,1h0a1,1,0,0,0,1-.93Z"/><path class="cls-1" d="M7.23,47.47a3.08,3.08,0,0,1,3-3.1h0a3.12,3.12,0,1,1-3.09,3.15Zm3.07-1a1,1,0,0,0-1,1,.06.06,0,0,0,0,0,1,1,0,0,0,1,1h0a1.05,1.05,0,0,0,1-1,1,1,0,0,0-1-1Z"/><path class="cls-1" d="M24.77,47.47a3.1,3.1,0,1,1-3.1-3.1,3.08,3.08,0,0,1,3.1,3.06Zm-3.07-1a1,1,0,0,0-1,1v0a1.07,1.07,0,0,0,1,1,1,1,0,0,0,1-1v0a1,1,0,0,0-1-1Z"/></g></g></g></g></g></svg>