<svg xmlns="http://www.w3.org/2000/svg" width="63.96" height="64.02" viewBox="0 0 63.96 64.02"><defs><style>.cls-1{fill:#8dc63f;}</style></defs><g id="Layer_2" data-name="Layer 2"><g id="Layer_1-2" data-name="Layer 1"><g id="Layer_2-2" data-name="Layer 2"><g id="Layer_1-2-2" data-name="Layer 1-2"><g id="skills"><path class="cls-1" d="M49.59,64a30.59,30.59,0,0,1-3.52-1,12.76,12.76,0,0,1-8-12.77c.06-.88.27-1.76.39-2.64a.75.75,0,0,0-.08-.55C37,45.6,35.54,44.17,34,42.55a5.9,5.9,0,0,1-.5.7q-7.16,7.17-14.28,14.28a3.72,3.72,0,0,1-1.3.8c-5.24,1.8-10.45,3.55-15.65,5.29a1.46,1.46,0,0,1-1.65-.21,1.46,1.46,0,0,1-.19-1.63C2.12,56.56,3.84,51.34,5.6,46.13a3.32,3.32,0,0,1,.75-1.25q7.15-7.23,14.4-14.41c.17-.16.36-.29.58-.46-.21-.23-.34-.38-.48-.52-1.22-1.23-2.46-2.43-3.65-3.68a.92.92,0,0,0-1-.25A12.71,12.71,0,0,1,4.79,23.05,12.92,12.92,0,0,1,1,8,1.28,1.28,0,0,1,2.6,7a1.32,1.32,0,0,1,.69.47c1.79,1.77,3.57,3.56,5.34,5.34a3.27,3.27,0,0,1,.35.48L13.21,9c-.83-.82-1.72-1.69-2.6-2.57L7.5,3.38A1.31,1.31,0,0,1,8,1,13,13,0,0,1,25.46,16.35a.89.89,0,0,0,.08.66c1.41,1.45,2.84,2.87,4.51,4.51a3,3,0,0,1,.4-.69Q40,11.2,49.62,1.6A4.79,4.79,0,0,1,55.91.85a7.37,7.37,0,0,1,.94.82c1.51,1.5,3.06,3.08,4.6,4.58A8,8,0,0,1,64,9.88v1.75a7.1,7.1,0,0,1-2.07,3.25Q52.49,24.24,43.1,33.67c-.16.15-.3.32-.47.5,1.47,1.46,2.87,2.88,4.3,4.28a.79.79,0,0,0,.65.12,13.74,13.74,0,0,1,5.19-.3,12.9,12.9,0,0,1,10.67,9.34c.21.79.34,1.61.5,2.42v2.13a1.67,1.67,0,0,1-.11.34c-.29,1.17-.52,2.35-.9,3.48a1.31,1.31,0,0,1-2.35.52l-3.92-3.93c-.6-.6-1.18-1.22-1.7-1.76L50.71,55c1.76,1.76,3.51,3.6,5.38,5.33,1.28,1.19,1.15,2.39-.71,2.9-1,.27-2,.52-2.93.76ZM45.83,9.13l-37,37,3.69,3.7a4.91,4.91,0,0,1,.39-.51L24.27,37.93a5.45,5.45,0,0,1,.5-.46,1.26,1.26,0,0,1,1.76.26,1.25,1.25,0,0,1,0,1.49,6,6,0,0,1-.42.46l-9.89,9.93c-.67.66-1.34,1.31-2,1.92l3.65,3.68q18.48-18.51,37-37l-3.69-3.7c-.19.22-.39.5-.63.75L34.79,31a5.44,5.44,0,0,1-.49.47,1.26,1.26,0,0,1-1.78-1.77,5.55,5.55,0,0,1,.48-.49q8-8,16-15.94a2.72,2.72,0,0,1,.61-.38ZM28,23.09c-1.62-1.62-3.24-3.25-4.87-4.85a1.6,1.6,0,0,1-.43-1.75,14,14,0,0,0,.6-3,10.37,10.37,0,0,0-6.16-10A9.37,9.37,0,0,0,10.58,3c.12.2.37.28.52.43C12.68,5,14.23,6.51,15.76,8.09a1.29,1.29,0,0,1,.32,1.79,1.18,1.18,0,0,1-.32.31Q12.94,13,10.11,15.84a1.3,1.3,0,0,1-1.81.35A1.26,1.26,0,0,1,8,15.84L3.32,11.15c-.16-.16-.33-.3-.51-.47a9.44,9.44,0,0,0,0,4.78,10.44,10.44,0,0,0,12.6,7.66,9.12,9.12,0,0,0,.93-.28,1.67,1.67,0,0,1,2,.48c.75.78,1.5,1.5,2.25,2.3L23,28.1ZM35.91,41c1.57,1.55,3.14,3.16,4.75,4.72a1.7,1.7,0,0,1,.48,2,10.37,10.37,0,0,0,5.15,12.65,9.92,9.92,0,0,0,7.05.84l-.48-.49L48.19,56a1.3,1.3,0,0,1,0-2.19l5.56-5.57c.81-.81,1.41-.8,2.25,0L60.73,53c.13.13.27.24.45.39A10.24,10.24,0,0,0,61,48.1a10.41,10.41,0,0,0-12.94-7l-.4.13a1.72,1.72,0,0,1-2-.48c-1-1-2-2-3-3-.58-.59-1.14-1.21-1.68-1.79ZM56.82,16.37c1.33-1.33,2.68-2.65,4-4a2.14,2.14,0,0,0,.06-3h0q-3-3.14-6.16-6.18a2.1,2.1,0,0,0-3,0C50.34,4.43,49,5.84,47.65,7.19ZM15.34,56.59,7.41,48.65C7,49.77,6.65,51,6.26,52.16a.64.64,0,0,0,.15.53C8,54.33,9.65,56,11.3,57.58a.7.7,0,0,0,.59.15C13.07,57.36,14.26,57,15.34,56.59ZM3.47,60.54l5.26-1.76L5.24,55.27Z"/><path class="cls-1" d="M30.8,34.5a1.29,1.29,0,0,1-1.3,1.24,1.34,1.34,0,0,1-1.23-1.27,1.29,1.29,0,0,1,1.29-1.26,1.26,1.26,0,0,1,1.24,1.26Z"/></g></g></g></g></g></svg>