<svg xmlns="http://www.w3.org/2000/svg" width="98.29" height="62.58" viewBox="0 0 98.29 62.58"><defs><style>.cls-1{fill:#8dc63f;}</style></defs><g id="Layer_2" data-name="Layer 2"><g id="Layer_1-2" data-name="Layer 1"><path class="cls-1" d="M98.29,31.67a28.64,28.64,0,0,1-2,3.15A89.85,89.85,0,0,1,76.5,53.22a54.52,54.52,0,0,1-19.36,8.53,40.35,40.35,0,0,1-22.9-2c-8.47-3.2-15.75-8.3-22.4-14.35A93,93,0,0,1,1.09,33.79c-1.45-1.85-1.46-3.16,0-5a87.48,87.48,0,0,1,24.84-22C33.6,2.33,41.79-.34,50.77,0A43.79,43.79,0,0,1,68.35,4.68C80,10.39,89.31,18.88,97.28,29a10.71,10.71,0,0,1,1,1.93ZM49.13,56.06h2.69c.25,0,.51-.05.76-.08A43.84,43.84,0,0,0,70.2,49.6,84,84,0,0,0,90.42,31.94c.47-.54.41-.87,0-1.35-1.69-1.79-3.28-3.68-5-5.43-6.3-6.37-13.25-11.84-21.53-15.45A37.65,37.65,0,0,0,51.37,6.49c-7.14-.49-13.75,1.41-20,4.64C22.07,15.94,14.5,22.86,7.74,30.75c-.38.45-.31.72,0,1.12,6.71,7.8,14.2,14.65,23.39,19.46C36.79,54.26,42.71,56.16,49.13,56.06Z"/><path class="cls-1" d="M29.73,31.3A19.4,19.4,0,1,1,49.16,50.68,19.39,19.39,0,0,1,29.73,31.3Zm32.39,0a13,13,0,1,0-13,13A13.06,13.06,0,0,0,62.12,31.28Z"/></g></g></svg>